# xmcd
#
# Track frame offsets:
# 150
# 20885
# 43659
# 63849
# 81241
# 98597
# 113578
# 129267
# 147223
# 164972
# 178866
# 197122
# 214801
# 230925
# 245832
# 263486
# 280954
# 299021
# 318692
# 334404
#
# Disc length: 4738 seconds
#
#
# Revision: 0
# Processed by: cddbd v1.5.1PL2 Copyright (c) Steve Scherf et al.
# Submitted via: FreeRIP 2.944 
#
DISCID=44128014
DTITLE=Elton John - As 20 Mais
DYEAR=2004
DGENRE=Dance
TTITLE0=I want love
TTITLE1=Bennie and the jets
TTITLE2=The emperor´s new cloths
TTITLE3=Candle in the wind
TTITLE4=Sorry seems to be the hardest word
TTITLE5=Goodbye yellow brick road
TTITLE6=Blue eyes
TTITLE7=You cant take
TTITLE8=Daniel
TTITLE9=I´m still standing
TTITLE10=Your song
TTITLE11=Sad Songs
TTITLE12=True Love
TTITLE13=Nikita
TTITLE14=Please
TTITLE15=Birds
TTITLE16=Can you feel love tonight?
TTITLE17=The wasteland
TTITLE18=Sacrifice
TTITLE19=This trains don´t stop there anymore
EXTD=
EXTT0=
EXTT1=
EXTT2=
EXTT3=
EXTT4=
EXTT5=
EXTT6=
EXTT7=
EXTT8=
EXTT9=
EXTT10=
EXTT11=
EXTT12=
EXTT13=
EXTT14=
EXTT15=
EXTT16=
EXTT17=
EXTT18=
EXTT19=
PLAYORDER=
